# xmcd
#
# Track frame offsets:
#	150
#	15107
#	30662
#	48500
#	67506
#	83557
#	100649
#	119066
#	134694
#	148671
#	163628
#	179183
#	197021
#	216027
#	232078
#	249170
#	267587
#	283215
#
# Disc length: 3962
#
# Revision: 1
# Processed by: cddbd v1.5.2PL0 Copyright (c) Steve Scherf et al.
# Submitted via: kJams Pro (development) 1.0patch45.9
#
DISCID=040f7812
DTITLE=Various Artist - NSC 3025
DYEAR=1996
DGENRE=Country
TTITLE0=Toby Keith - My List
TTITLE1=Garth Brooks and Trisha Yearwood - Squeeze Me In
TTITLE2=Kenny Chesney - Young
TTITLE3=Travis Tritt - Modern Day Bonnie and Clyde
TTITLE4=Trick Pony - Just What I Do
TTITLE5=Gary Allan - The One
TTITLE6=Lonestar - Not A Day Goes By
TTITLE7=Andy Griggs - Sweet Music Man
TTITLE8=Andy Griggs - Tonight I Want To Be Your Man
TTITLE9=Toby Keith - Vocals - My List
TTITLE10=Garth Brooks and Trisha Yearwood - Vocals - Squeeze Me In
TTITLE11=Kenny Chesney - Vocals - Young
TTITLE12=Travis Tritt - Vocals - Modern Day Bonnie and Clyde
TTITLE13=Trick Pony - Vocals - Just What I Do
TTITLE14=Gary Allan - Vocals - The One
TTITLE15=Lonestar - Vocals - Not A Day Goes By
TTITLE16=Reba McEntire - Vocals - Sweet Music Man
TTITLE17=Andy Griggs - Vocals - Tonight I Want To Be Your Man
EXTD=
EXTT0=
EXTT1=
EXTT2=
EXTT3=
EXTT4=
EXTT5=
EXTT6=
EXTT7=
EXTT8=
EXTT9=
EXTT10=
EXTT11=
EXTT12=
EXTT13=
EXTT14=
EXTT15=
EXTT16=
EXTT17=
PLAYORDER=
